<mxfile host="Electron" modified="2024-03-08T15:36:19.843Z" agent="Mozilla/5.0 (Windows NT 10.0; Win64; x64) AppleWebKit/537.36 (KHTML, like Gecko) draw.io/23.1.5 Chrome/120.0.6099.109 Electron/28.1.0 Safari/537.36" etag="YJVOESAcGF-yhunQxlLI" version="23.1.5" type="device">
  <diagram id="f106602c-feb2-e66a-4537-3a34d633f6aa" name="Page-1">
    <mxGraphModel dx="1674" dy="844" grid="1" gridSize="10" guides="1" tooltips="1" connect="1" arrows="1" fold="1" page="1" pageScale="1" pageWidth="1169" pageHeight="827" background="none" math="0" shadow="0">
      <root>
        <mxCell id="0" />
        <mxCell id="1" parent="0" />
        <mxCell id="0f3sKpvdyzzDUuXgdVXJ-4" value="" style="fillColor=#becfe5;strokeColor=none;shadow=0;gradientColor=none;fontSize=14;align=left;spacing=10;fontColor=#717171;9E9E9E;verticalAlign=top;spacingTop=-4;fontStyle=0;spacingLeft=40;html=1;container=0;" vertex="1" parent="1">
          <mxGeometry x="300" y="130" width="230" height="310" as="geometry" />
        </mxCell>
        <mxCell id="2" value="Architecture: WebChat" style="fillColor=#4DA1F5;strokeColor=none;shadow=1;gradientColor=none;fontSize=14;align=left;spacingLeft=50;fontColor=#ffffff;html=1;" parent="1" vertex="1">
          <mxGeometry width="1160" height="40" as="geometry" />
        </mxCell>
        <mxCell id="RXqQxgUwhw2r71GECmwn-727" value="&lt;font style=&quot;font-size: 18px;&quot;&gt;User&lt;/font&gt;" style="text;html=1;align=center;verticalAlign=middle;resizable=0;points=[];autosize=1;strokeColor=none;fillColor=none;" parent="1" vertex="1">
          <mxGeometry x="10" y="384" width="60" height="40" as="geometry" />
        </mxCell>
        <mxCell id="RXqQxgUwhw2r71GECmwn-737" style="edgeStyle=none;rounded=0;orthogonalLoop=1;jettySize=auto;html=1;exitX=0.98;exitY=0.51;exitDx=0;exitDy=0;exitPerimeter=0;" parent="1" source="RXqQxgUwhw2r71GECmwn-728" target="RXqQxgUwhw2r71GECmwn-729" edge="1">
          <mxGeometry relative="1" as="geometry" />
        </mxCell>
        <mxCell id="RXqQxgUwhw2r71GECmwn-728" value="" style="points=[[0.35,0,0],[0.98,0.51,0],[1,0.71,0],[0.67,1,0],[0,0.795,0],[0,0.65,0]];verticalLabelPosition=bottom;sketch=0;html=1;verticalAlign=top;aspect=fixed;align=center;pointerEvents=1;shape=mxgraph.cisco19.user;fillColor=#005073;strokeColor=none;" parent="1" vertex="1">
          <mxGeometry x="5" y="304" width="80" height="80" as="geometry" />
        </mxCell>
        <mxCell id="RXqQxgUwhw2r71GECmwn-781" style="edgeStyle=orthogonalEdgeStyle;rounded=0;orthogonalLoop=1;jettySize=auto;html=1;entryX=0;entryY=0.25;entryDx=0;entryDy=0;" parent="1" source="RXqQxgUwhw2r71GECmwn-729" target="RXqQxgUwhw2r71GECmwn-723" edge="1">
          <mxGeometry relative="1" as="geometry">
            <Array as="points">
              <mxPoint x="280" y="344" />
              <mxPoint x="280" y="208" />
            </Array>
          </mxGeometry>
        </mxCell>
        <mxCell id="0f3sKpvdyzzDUuXgdVXJ-8" style="edgeStyle=orthogonalEdgeStyle;rounded=0;orthogonalLoop=1;jettySize=auto;html=1;entryX=0;entryY=0.75;entryDx=0;entryDy=0;" edge="1" parent="1" source="RXqQxgUwhw2r71GECmwn-729" target="RXqQxgUwhw2r71GECmwn-723">
          <mxGeometry relative="1" as="geometry">
            <Array as="points">
              <mxPoint x="280" y="344" />
              <mxPoint x="280" y="363" />
            </Array>
          </mxGeometry>
        </mxCell>
        <mxCell id="0f3sKpvdyzzDUuXgdVXJ-9" style="edgeStyle=orthogonalEdgeStyle;rounded=0;orthogonalLoop=1;jettySize=auto;html=1;entryX=0;entryY=0.5;entryDx=0;entryDy=0;" edge="1" parent="1" target="RXqQxgUwhw2r71GECmwn-723">
          <mxGeometry relative="1" as="geometry">
            <mxPoint x="280" y="320" as="sourcePoint" />
            <Array as="points">
              <mxPoint x="280" y="309" />
              <mxPoint x="280" y="285" />
            </Array>
          </mxGeometry>
        </mxCell>
        <mxCell id="RXqQxgUwhw2r71GECmwn-729" value="" style="sketch=0;pointerEvents=1;shadow=0;dashed=0;html=1;strokeColor=none;fillColor=#434445;aspect=fixed;labelPosition=center;verticalLabelPosition=bottom;verticalAlign=top;align=center;outlineConnect=0;shape=mxgraph.vvd.web_browser;" parent="1" vertex="1">
          <mxGeometry x="150" y="316" width="78.17" height="55.5" as="geometry" />
        </mxCell>
        <mxCell id="RXqQxgUwhw2r71GECmwn-730" value="&lt;font style=&quot;font-size: 18px;&quot;&gt;Application Web&lt;/font&gt;" style="text;html=1;align=center;verticalAlign=middle;resizable=0;points=[];autosize=1;strokeColor=none;fillColor=none;" parent="1" vertex="1">
          <mxGeometry x="114.09" y="371.41" width="150" height="40" as="geometry" />
        </mxCell>
        <mxCell id="RXqQxgUwhw2r71GECmwn-739" style="edgeStyle=none;rounded=0;orthogonalLoop=1;jettySize=auto;html=1;entryX=0.98;entryY=0.51;entryDx=0;entryDy=0;entryPerimeter=0;" parent="1" source="RXqQxgUwhw2r71GECmwn-729" target="RXqQxgUwhw2r71GECmwn-728" edge="1">
          <mxGeometry relative="1" as="geometry" />
        </mxCell>
        <mxCell id="RXqQxgUwhw2r71GECmwn-765" value="&lt;font style=&quot;font-size: 18px;&quot;&gt;User&lt;/font&gt;" style="text;html=1;align=center;verticalAlign=middle;resizable=0;points=[];autosize=1;strokeColor=none;fillColor=none;" parent="1" vertex="1">
          <mxGeometry x="15" y="242.5" width="60" height="40" as="geometry" />
        </mxCell>
        <mxCell id="RXqQxgUwhw2r71GECmwn-766" style="edgeStyle=none;rounded=0;orthogonalLoop=1;jettySize=auto;html=1;" parent="1" source="RXqQxgUwhw2r71GECmwn-785" target="RXqQxgUwhw2r71GECmwn-768" edge="1">
          <mxGeometry relative="1" as="geometry">
            <mxPoint x="83.39999999999998" y="215.79999999999995" as="sourcePoint" />
          </mxGeometry>
        </mxCell>
        <mxCell id="RXqQxgUwhw2r71GECmwn-768" value="" style="sketch=0;pointerEvents=1;shadow=0;dashed=0;html=1;strokeColor=none;fillColor=#434445;aspect=fixed;labelPosition=center;verticalLabelPosition=bottom;verticalAlign=top;align=center;outlineConnect=0;shape=mxgraph.vvd.web_browser;" parent="1" vertex="1">
          <mxGeometry x="150" y="187" width="78.17" height="55.5" as="geometry" />
        </mxCell>
        <mxCell id="RXqQxgUwhw2r71GECmwn-769" value="&lt;font style=&quot;font-size: 18px;&quot;&gt;Application Web&lt;/font&gt;" style="text;html=1;align=center;verticalAlign=middle;resizable=0;points=[];autosize=1;strokeColor=none;fillColor=none;" parent="1" vertex="1">
          <mxGeometry x="114.09" y="242.41000000000003" width="150" height="40" as="geometry" />
        </mxCell>
        <mxCell id="RXqQxgUwhw2r71GECmwn-770" style="edgeStyle=none;rounded=0;orthogonalLoop=1;jettySize=auto;html=1;" parent="1" source="RXqQxgUwhw2r71GECmwn-768" target="RXqQxgUwhw2r71GECmwn-785" edge="1">
          <mxGeometry relative="1" as="geometry">
            <mxPoint x="83.39999999999998" y="215.79999999999995" as="targetPoint" />
            <Array as="points" />
          </mxGeometry>
        </mxCell>
        <mxCell id="RXqQxgUwhw2r71GECmwn-774" value="" style="group" parent="1" vertex="1" connectable="0">
          <mxGeometry x="550" y="70" width="251.87" height="370" as="geometry" />
        </mxCell>
        <mxCell id="RXqQxgUwhw2r71GECmwn-719" value="" style="shape=image;verticalLabelPosition=bottom;labelBackgroundColor=default;verticalAlign=top;aspect=fixed;imageAspect=0;image=data:image/svg+xml,PHN2ZyB4bWxuczp4bGluaz0iaHR0cDovL3d3dy53My5vcmcvMTk5OS94bGluayIgeG1sbnM9Imh0dHA6Ly93d3cudzMub3JnLzIwMDAvc3ZnIiB2aWV3Qm94PSIwIDAgMjMwIDY0Ij48ZGVmcz48Y2xpcFBhdGggaWQ9ImEiPjxwYXRoIHN0eWxlPSJmaWxsOm5vbmUiIGQ9Ik0zMy41NiwxNy40OWExLjIxLDEuMjEsMCwwLDAtMS4zOC0xLDEuMSwxLjEsMCwwLDAtLjY1LjMzbC02LjI0LDYuMjMtNC44OC05LjMyYTEuMiwxLjIsMCwwLDAtMS42Mi0uNTEsMS4zOSwxLjM5LDAsMCwwLS41MS41MWwtMi42Niw1LjFMOC45MSw2LjMxYTEuMTksMS4xOSwwLDAsMC0xLjYyLS40NywxLjIzLDEuMjMsMCwwLDAtLjYzLjg2TC4xNiw0OC4yMiwxNy41MSw1OEEzLjYzLDMuNjMsMCwwLDAsMjEsNThsMTcuNS05Ljc0WiIvPjwvY2xpcFBhdGg+PGxpbmVhckdyYWRpZW50IGdyYWRpZW50VW5pdHM9InVzZXJTcGFjZU9uVXNlIiBncmFkaWVudFRyYW5zZm9ybT0idHJhbnNsYXRlKDAgMjY1Ljk5KSIgeTI9Ii0yMzMuMjMiIHgyPSI1LjI0IiB5MT0iLTIzMS45OCIgeDE9IjcuNjMiIGlkPSJiIj48c3RvcCBzdG9wLWNvbG9yPSIjYTUyNzE0IiBvZmZzZXQ9IjAiLz48c3RvcCBzdG9wLW9wYWNpdHk9IjAuNSIgc3RvcC1jb2xvcj0iI2E1MjcxNCIgb2Zmc2V0PSIwLjQiLz48c3RvcCBzdG9wLW9wYWNpdHk9IjAiIHN0b3AtY29sb3I9IiNhNTI3MTQiIG9mZnNldD0iMC44Ii8+PC9saW5lYXJHcmFkaWVudD48bGluZWFyR3JhZGllbnQgZ3JhZGllbnRVbml0cz0idXNlclNwYWNlT25Vc2UiIGdyYWRpZW50VHJhbnNmb3JtPSJ0cmFuc2xhdGUoMCAyNjUuOTkpIiB5Mj0iLTIzNi41NCIgeDI9IjE2Ljc0IiB5MT0iLTIzNS40NyIgeDE9IjE3LjgxIiBpZD0iYyI+PHN0b3Agc3RvcC1vcGFjaXR5PSIwLjgiIHN0b3AtY29sb3I9IiNhNTI3MTQiIG9mZnNldD0iMCIvPjxzdG9wIHN0b3Atb3BhY2l0eT0iMC4yMSIgc3RvcC1jb2xvcj0iI2E1MjcxNCIgb2Zmc2V0PSIwLjUiLz48c3RvcCBzdG9wLW9wYWNpdHk9IjAiIHN0b3AtY29sb3I9IiNhNTI3MTQiIG9mZnNldD0iMSIvPjwvbGluZWFyR3JhZGllbnQ+PGxpbmVhckdyYWRpZW50IGdyYWRpZW50VW5pdHM9InVzZXJTcGFjZU9uVXNlIiBncmFkaWVudFRyYW5zZm9ybT0ibWF0cml4KDIuNjcsIDAsIDAsIC0yLjY3LCAxNjU1Ljk4LCAtMzM4MC42NikiIHkyPSItMTI4Ni43NyIgeDI9Ii02MDUuNTUiIHkxPSItMTI3MS43NyIgeDE9Ii02MjAuNTQiIGlkPSJkIj48c3RvcCBzdG9wLW9wYWNpdHk9IjAuMSIgc3RvcC1jb2xvcj0iI2ZmZiIgb2Zmc2V0PSIwIi8+PHN0b3Agc3RvcC1vcGFjaXR5PSIwIiBzdG9wLWNvbG9yPSIjZmZmIiBvZmZzZXQ9IjEiLz48L2xpbmVhckdyYWRpZW50PjwvZGVmcz48cmVjdCBzdHlsZT0iZmlsbDpub25lIiBoZWlnaHQ9IjU1LjQ3IiB3aWR0aD0iNTUuNDciIHk9IjQuNTkiIHg9Ii04LjUyIi8+PGcgc3R5bGU9ImNsaXAtcGF0aDp1cmwoI2EpIj48cGF0aCBzdHlsZT0iZmlsbDojZmZhMDAwIiBkPSJNLjE2LDQ4LjIyLDYuNjYsNi43QTEuMTgsMS4xOCwwLDAsMSw4LDUuNzJhMS4yNiwxLjI2LDAsMCwxLC44Ny42Mmw2LjcxLDEyLjUzLDIuNjYtNS4xYTEuMiwxLjIsMCwwLDEsMS42Mi0uNTEsMS4zOSwxLjM5LDAsMCwxLC41MS41MWwxOC4xLDM0LjQ1WiIvPjxwYXRoIHN0eWxlPSJvcGFjaXR5OjAuMTE5OTk5OTk3MzE3NzkxO2lzb2xhdGlvbjppc29sYXRlO2ZpbGw6dXJsKCNiKSIgZD0iTTIyLjMzLDYtOS40MywzLjI5VjYwLjgxTC4xNiw0OC4yMloiLz48cGF0aCBzdHlsZT0iZmlsbDojZjU3YzAwIiBkPSJNMjIuNiwzMi4wNWwtNy0xMy4yMUwuMTYsNDguMjJaIi8+PHBhdGggc3R5bGU9Im9wYWNpdHk6MC4yMDAwMDAwMDI5ODAyMzI7aXNvbGF0aW9uOmlzb2xhdGU7ZmlsbDp1cmwoI2MpIiBkPSJNLTkuNDMsMy4yOUg0OC4wOVY2MC44MUgtOS40M1oiLz48cGF0aCBzdHlsZT0iZmlsbDojZmZjYTI4IiBkPSJNMzguNTEsNDguMjJsLTUtMzAuNzZhMS4yMSwxLjIxLDAsMCwwLTEuMzgtMSwxLjEzLDEuMTMsMCwwLDAtLjY1LjMzTC4xNiw0OC4yMiwxNy41MSw1OEEzLjYzLDMuNjMsMCwwLDAsMjEsNThaIi8+PHBhdGggc3R5bGU9ImZpbGw6I2ZmZjtmaWxsLW9wYWNpdHk6MC4yMDAwMDAwMDI5ODAyMzIiIGQ9Ik0zMy41NiwxNy40OWExLjIxLDEuMjEsMCwwLDAtMS4zOC0xLDEuMSwxLjEsMCwwLDAtLjY1LjMzbC02LjI0LDYuMjMtNC44OC05LjMyYTEuMiwxLjIsMCwwLDAtMS42Mi0uNTEsMS4zOSwxLjM5LDAsMCwwLS41MS41MWwtMi42Niw1LjFMOC45MSw2LjMxYTEuMTksMS4xOSwwLDAsMC0xLjYyLS40NywxLjIzLDEuMjMsMCwwLDAtLjYzLjg2TC4xNiw0OC4yMmgwbDAsMCwuMTguMDksMjUtMjUsNi4yNC02LjIzYTEuMTgsMS4xOCwwLDAsMSwxLjcsMCwxLjA3LDEuMDcsMCwwLDEsLjMzLjY2bDQuOTIsMzAuNDYuMDYsMFpNLjIyLDQ4LjE2LDYuNjYsN0ExLjE3LDEuMTcsMCwwLDEsOCw2YTEuMjMsMS4yMywwLDAsMSwuODcuNjJsNi43MSwxMi41MywyLjY2LTUuMWExLjE5LDEuMTksMCwwLDEsMS42Mi0uNTEsMS4zOSwxLjM5LDAsMCwxLC41MS41MWw0Ljc5LDkuMTFaIi8+PHBhdGggc3R5bGU9ImZpbGw6I2E1MjcxNDtvcGFjaXR5OjAuMjAwMDAwMDAyOTgwMjMyO2lzb2xhdGlvbjppc29sYXRlIiBkPSJNMjEsNTcuNjZhMy42MywzLjYzLDAsMCwxLTMuNSwwTC4xOSw0OGwwLC4yN0wxNy41MSw1OEEzLjYzLDMuNjMsMCwwLDAsMjEsNThsMTcuNS05Ljc0LDAtLjI3WiIvPjxwYXRoIHN0eWxlPSJmaWxsOnVybCgjZCkiIGQ9Ik0zMy41NiwxNy40OWExLjIxLDEuMjEsMCwwLDAtMS4zOC0xLDEuMSwxLjEsMCwwLDAtLjY1LjMzbC02LjI0LDYuMjMtNC44OC05LjMyYTEuMiwxLjIsMCwwLDAtMS42Mi0uNTEsMS4zOSwxLjM5LDAsMCwwLS41MS41MWwtMi42Niw1LjFMOC45MSw2LjMxYTEuMTksMS4xOSwwLDAsMC0xLjYyLS40NywxLjIzLDEuMjMsMCwwLDAtLjYzLjg2TC4xNiw0OC4yMiwxNy41MSw1OEEzLjYzLDMuNjMsMCwwLDAsMjEsNThsMTcuNS05Ljc0WiIvPjwvZz48cGF0aCBzdHlsZT0iZmlsbDojNWY2MzY4IiBkPSJNNzUuNDIsNDhINzEuMjhWMTUuOTFIOTAuMDV2NEg3NS40MlYzMC40M0g4OC42NHYzLjg2SDc1LjQ1VjQ4Wm0yMS43NS0yNy41QTMsMywwLDEsMSw5OCwxOC40NywyLjkxLDIuOTEsMCwwLDEsOTcuMTcsMjAuNTRabTAsMjcuNUg5M1YyNmg0LjE0Wm04LjYzLDBoLTQuMTRWMjZoNHYzLjU4aC4xOGE1LjQ3LDUuNDcsMCwwLDEsMi42LTIuOTQsNy4zLDcuMywwLDAsMSwzLjc4LTEuMTYsOCw4LDAsMCwxLDMuMDkuNTJsLTEuNTgsMy44NmE2LjE0LDYuMTQsMCwwLDAtMi4yMS0uMzEsNS4zMSw1LjMxLDAsMCwwLTQsMS43OUE2LjMzLDYuMzMsMCwwLDAsMTA1LjgsMzZabTE5LjQ0Ljc0YTEwLjYxLDEwLjYxLDAsMCwxLTguMTEtMy4zM0ExMS44MiwxMS44MiwwLDAsMSwxMTQsMzcuMDZhMTIuMywxMi4zLDAsMCwxLDMtOC4yOCw5LjgzLDkuODMsMCwwLDEsNy43NS0zLjQ3LDEwLjA3LDEwLjA3LDAsMCwxLDcuODIsMy4xOSwxMi4wOSwxMi4wOSwwLDAsMSwzLDguNTNsMCwuNzdIMTE4LjE1YTcuNTYsNy41NiwwLDAsMCwyLjIxLDUuMjZBNi42OCw2LjY4LDAsMCwwLDEyNS4xMyw0NWMzLDAsNS0xLjI2LDYtMy43OWwzLjY4LDEuNTRBOS42NSw5LjY1LDAsMCwxLDEzMS4zMSw0NywxMC4zMywxMC4zMywwLDAsMSwxMjUuMjQsNDguNzhabTUuOTMtMTQuMzlhNS45Miw1LjkyLDAsMCwwLTEuNzItMy41Nyw2LjIsNi4yLDAsMCwwLTQuNzQtMS43Miw1LjksNS45LDAsMCwwLTQsMS40NCw3LjIzLDcuMjMsMCwwLDAtMi4zMiwzLjg1Wm0xOC45MSwxNC4zOWE5LjE1LDkuMTUsMCwwLDEtNC41My0xLjA5LDcuNDIsNy40MiwwLDAsMS0zLTIuN2gtLjE4djNoLTRWMTUuOTFoNC4xNFYyNmwtLjE4LDMuMDZoLjE4YTcuNjQsNy42NCwwLDAsMSwzLTIuNyw5LjQ4LDkuNDgsMCwwLDEsNC41My0xLjA5LDkuNjcsOS42NywwLDAsMSw3LjM2LDMuMzdBMTEuOCwxMS44LDAsMCwxLDE2MC41MywzN2ExMS44NCwxMS44NCwwLDAsMS0zLjA5LDguMzVBOS42LDkuNiwwLDAsMSwxNTAuMDgsNDguNzhaTTE0OS4zNyw0NWE2LjYxLDYuNjEsMCwwLDAsNC45NS0yLjE4LDgsOCwwLDAsMCwyLjA3LTUuNzUsOCw4LDAsMCwwLTIuMDctNS43NSw2LjYxLDYuNjEsMCwwLDAtNC45NS0yLjE4LDYuNDksNi40OSwwLDAsMC00Ljk0LDIuMTQsOC4xOCw4LjE4LDAsMCwwLTIsNS43OSw4LDgsMCwwLDAsMiw1Ljc5QTYuNTMsNi41MywwLDAsMCwxNDkuMzcsNDVabTIxLjQ0LDMuNzlhOC41OCw4LjU4LDAsMCwxLTUuODYtMiw2LjYyLDYuNjIsMCwwLDEtMi4zNS01LjMzLDYuNjQsNi42NCwwLDAsMSwyLjc3LTUuNjUsMTEuMjQsMTEuMjQsMCwwLDEsNi44OC0yLDEyLDEyLDAsMCwxLDYsMS4zM3YtLjYzYTUsNSwwLDAsMC0xLjY1LTMuODksNS44OCw1Ljg4LDAsMCwwLTQuMDctMS40OCw2LjQ2LDYuNDYsMCwwLDAtMy4yNi44NCw0LjI5LDQuMjksMCwwLDAtMiwyLjM1bC0zLjc5LTEuNjFhOC41NCw4LjU0LDAsMCwxLDMtMy42NSw5LjY4LDkuNjgsMCwwLDEsNS45My0xLjY4LDEwLjE2LDEwLjE2LDAsMCwxLDcsMi40NSw4LjgsOC44LDAsMCwxLDIuNzgsN1Y0OGgtNFY0NUgxNzhBOC4xLDguMSwwLDAsMSwxNzAuODEsNDguNzhabS42Ny0zLjc5YTYuNjYsNi42NiwwLDAsMCw0LjYzLTEuODksNS45Miw1LjkyLDAsMCwwLDIuMS00LjUzQTguMTcsOC4xNywwLDAsMCwxNzMsMzcuMTNhNi43Nyw2Ljc3LDAsMCwwLTQuNTMsMS4zLDQsNCwwLDAsMC0xLjU0LDMsMi45MSwyLjkxLDAsMCwwLDEuNCwyLjU2QTUuNjMsNS42MywwLDAsMCwxNzEuNDgsNDVabTIyLjE3LDMuNzlBOS44Myw5LjgzLDAsMCwxLDE4Ny41OCw0N2ExMC40NiwxMC40NiwwLDAsMS0zLjUxLTQuNDlMMTg3Ljc1LDQxYTYuMDYsNi4wNiwwLDAsMCw2LDQuMTMsNS40NCw1LjQ0LDAsMCwwLDMuMTYtLjg0QTIuNjUsMi42NSwwLDAsMCwxOTguMSw0MmMwLTEuNDQtMS0yLjQyLTMtMi45MUwxOTAuNjMsMzhhMTAuNzksMTAuNzksMCwwLDEtNC0yLDQuOTIsNC45MiwwLDAsMS0xLjg5LTQuMDcsNS42LDUuNiwwLDAsMSwyLjU5LTQuNzMsMTEsMTEsMCwwLDEsMTEuMzQtLjQ5LDcuMTgsNy4xOCwwLDAsMSwzLjI2LDMuNzlsLTMuNTgsMS40N2MtLjgxLTEuOTMtMi40OS0yLjkxLTUtMi45MWE1LjY0LDUuNjQsMCwwLDAtMy4wOC43N0EyLjMyLDIuMzIsMCwwLDAsMTg5LDMxLjg3YzAsMS4yNiwxLDIuMSwyLjkxLDIuNTZsNC4zNSwxYTguNTUsOC41NSwwLDAsMSw0LjYsMi40NSw2LDYsMCwwLDEsMS40Nyw0LDYuMTUsNi4xNSwwLDAsMS0yLjQyLDQuOTRBOS4zOSw5LjM5LDAsMCwxLDE5My42NSw0OC43OFptMjEuNTgsMGExMC42MSwxMC42MSwwLDAsMS04LjExLTMuMzNBMTEuODIsMTEuODIsMCwwLDEsMjA0LDM3LjA2YTEyLjMsMTIuMywwLDAsMSwzLTguMjgsOS44Myw5LjgzLDAsMCwxLDcuNzUtMy40NywxMC4wNywxMC4wNywwLDAsMSw3LjgyLDMuMTlBMTIuMDksMTIuMDksMCwwLDEsMjI1LjU0LDM3bDAsLjc3SDIwOC4xNGE3LjU2LDcuNTYsMCwwLDAsMi4yMSw1LjI2QTYuNjgsNi42OCwwLDAsMCwyMTUuMTIsNDVjMi45NSwwLDUtMS4yNiw2LTMuNzlsMy42OSwxLjU0QTkuNjEsOS42MSwwLDAsMSwyMjEuMjksNDcsMTAuMjgsMTAuMjgsMCwwLDEsMjE1LjIzLDQ4Ljc4Wm01LjkyLTE0LjM5YTUuODUsNS44NSwwLDAsMC0xLjcxLTMuNTcsNi4yLDYuMiwwLDAsMC00Ljc0LTEuNzIsNiw2LDAsMCwwLTQsMS40NCw3LjI4LDcuMjgsMCwwLDAtMi4zMSwzLjg1WiIvPjwvc3ZnPg==;container=0;" parent="RXqQxgUwhw2r71GECmwn-774" vertex="1">
          <mxGeometry x="18.120000000000005" width="215.63" height="60" as="geometry" />
        </mxCell>
        <mxCell id="RXqQxgUwhw2r71GECmwn-723" value="" style="fillColor=#becfe8;strokeColor=none;shadow=0;gradientColor=none;fontSize=14;align=left;spacing=10;fontColor=#717171;9E9E9E;verticalAlign=top;spacingTop=-4;fontStyle=0;spacingLeft=40;html=1;container=0;" parent="RXqQxgUwhw2r71GECmwn-774" vertex="1">
          <mxGeometry y="60" width="251.87" height="310" as="geometry" />
        </mxCell>
        <mxCell id="RXqQxgUwhw2r71GECmwn-735" value="" style="shape=image;verticalLabelPosition=bottom;labelBackgroundColor=default;verticalAlign=top;aspect=fixed;imageAspect=0;image=https://miro.medium.com/v2/resize:fit:1400/1*WMrLw9ZHuo6zXMzINtgLQA.png;container=0;" parent="RXqQxgUwhw2r71GECmwn-774" vertex="1">
          <mxGeometry x="18.120000000000005" y="165.84" width="216.67" height="65" as="geometry" />
        </mxCell>
        <mxCell id="RXqQxgUwhw2r71GECmwn-762" value="" style="shape=image;verticalLabelPosition=bottom;labelBackgroundColor=default;verticalAlign=top;aspect=fixed;imageAspect=0;image=https://miro.medium.com/v2/resize:fit:1080/1*eydB7_tt0nAsO4c-CCFAaw.jpeg;clipPath=inset(17.66% 0% 22.46% 0%);container=0;" parent="RXqQxgUwhw2r71GECmwn-774" vertex="1">
          <mxGeometry x="9.67999999999995" y="75.84" width="232.5" height="77.5" as="geometry" />
        </mxCell>
        <mxCell id="RXqQxgUwhw2r71GECmwn-763" value="" style="shape=image;verticalLabelPosition=bottom;labelBackgroundColor=default;verticalAlign=top;aspect=fixed;imageAspect=0;image=https://miro.medium.com/v2/resize:fit:1024/1*oT_l6QxMdTN65-0gwFqeNg.png;clipPath=inset(13.24% 0% 13.24% 0%);container=0;" parent="RXqQxgUwhw2r71GECmwn-774" vertex="1">
          <mxGeometry x="13.299999999999955" y="247.46000000000004" width="225.26" height="75.08666666666666" as="geometry" />
        </mxCell>
        <mxCell id="RXqQxgUwhw2r71GECmwn-785" value="" style="sketch=0;pointerEvents=1;shadow=0;dashed=0;html=1;strokeColor=none;fillColor=#505050;labelPosition=center;verticalLabelPosition=bottom;verticalAlign=top;outlineConnect=0;align=center;shape=mxgraph.office.devices.cell_phone_android_proportional;" parent="1" vertex="1">
          <mxGeometry x="28" y="185" width="34" height="60" as="geometry" />
        </mxCell>
        <mxCell id="RXqQxgUwhw2r71GECmwn-790" style="edgeStyle=orthogonalEdgeStyle;rounded=0;orthogonalLoop=1;jettySize=auto;html=1;exitX=0;exitY=0.5;exitDx=0;exitDy=0;" parent="1" source="RXqQxgUwhw2r71GECmwn-788" target="RXqQxgUwhw2r71GECmwn-723" edge="1">
          <mxGeometry relative="1" as="geometry" />
        </mxCell>
        <mxCell id="RXqQxgUwhw2r71GECmwn-788" value="&lt;font style=&quot;font-size: 18px;&quot;&gt;Firebase console&lt;/font&gt;" style="rounded=0;whiteSpace=wrap;html=1;" parent="1" vertex="1">
          <mxGeometry x="1040" y="255" width="120" height="60" as="geometry" />
        </mxCell>
        <mxCell id="RXqQxgUwhw2r71GECmwn-787" style="edgeStyle=orthogonalEdgeStyle;rounded=0;orthogonalLoop=1;jettySize=auto;html=1;exitX=1;exitY=0.5;exitDx=0;exitDy=0;entryX=0;entryY=0.5;entryDx=0;entryDy=0;" parent="1" source="RXqQxgUwhw2r71GECmwn-723" target="RXqQxgUwhw2r71GECmwn-788" edge="1">
          <mxGeometry relative="1" as="geometry">
            <mxPoint x="970" y="284.66666666666674" as="targetPoint" />
          </mxGeometry>
        </mxCell>
        <mxCell id="RXqQxgUwhw2r71GECmwn-789" value="&lt;font style=&quot;font-size: 18px;&quot;&gt;Targeting rules/conditions&lt;/font&gt;" style="text;html=1;align=center;verticalAlign=middle;resizable=0;points=[];autosize=1;strokeColor=none;fillColor=none;" parent="1" vertex="1">
          <mxGeometry x="810" y="247.5" width="230" height="40" as="geometry" />
        </mxCell>
        <mxCell id="RXqQxgUwhw2r71GECmwn-791" value="&lt;font style=&quot;&quot;&gt;&lt;font style=&quot;font-size: 24px;&quot;&gt;&lt;b&gt;SDK&lt;/b&gt;&lt;/font&gt;&lt;br&gt;&lt;/font&gt;" style="text;html=1;align=center;verticalAlign=middle;resizable=0;points=[];autosize=1;strokeColor=none;fillColor=none;" parent="1" vertex="1">
          <mxGeometry x="375" y="90" width="70" height="40" as="geometry" />
        </mxCell>
        <mxCell id="0f3sKpvdyzzDUuXgdVXJ-10" style="edgeStyle=orthogonalEdgeStyle;rounded=0;orthogonalLoop=1;jettySize=auto;html=1;exitX=0;exitY=0.25;exitDx=0;exitDy=0;" edge="1" parent="1" source="RXqQxgUwhw2r71GECmwn-723" target="RXqQxgUwhw2r71GECmwn-768">
          <mxGeometry relative="1" as="geometry">
            <Array as="points">
              <mxPoint x="280" y="208" />
              <mxPoint x="280" y="220" />
            </Array>
          </mxGeometry>
        </mxCell>
        <mxCell id="0f3sKpvdyzzDUuXgdVXJ-11" style="edgeStyle=orthogonalEdgeStyle;rounded=0;orthogonalLoop=1;jettySize=auto;html=1;exitX=0;exitY=0.5;exitDx=0;exitDy=0;" edge="1" parent="1" source="RXqQxgUwhw2r71GECmwn-723" target="RXqQxgUwhw2r71GECmwn-729">
          <mxGeometry relative="1" as="geometry">
            <Array as="points">
              <mxPoint x="280" y="285" />
              <mxPoint x="280" y="344" />
            </Array>
          </mxGeometry>
        </mxCell>
        <mxCell id="0f3sKpvdyzzDUuXgdVXJ-12" value="login,register" style="text;html=1;align=center;verticalAlign=middle;resizable=0;points=[];autosize=1;strokeColor=none;fillColor=none;" vertex="1" parent="1">
          <mxGeometry x="365" y="180" width="90" height="30" as="geometry" />
        </mxCell>
        <mxCell id="0f3sKpvdyzzDUuXgdVXJ-13" value="write,read,create" style="text;html=1;align=center;verticalAlign=middle;resizable=0;points=[];autosize=1;strokeColor=none;fillColor=none;" vertex="1" parent="1">
          <mxGeometry x="355" y="257.5" width="110" height="30" as="geometry" />
        </mxCell>
        <mxCell id="0f3sKpvdyzzDUuXgdVXJ-14" value="upload,download" style="text;html=1;align=center;verticalAlign=middle;resizable=0;points=[];autosize=1;strokeColor=none;fillColor=none;" vertex="1" parent="1">
          <mxGeometry x="355" y="340" width="110" height="30" as="geometry" />
        </mxCell>
      </root>
    </mxGraphModel>
  </diagram>
</mxfile>
